<svg xmlns="http://www.w3.org/2000/svg" version="1.1" xmlns:xlink="http://www.w3.org/1999/xlink" xmlns:svgjs="http://svgjs.dev/svgjs" viewBox="0 0 800 800"><defs><linearGradient x1="50%" y1="0%" x2="50%" y2="100%" id="ffflurry-grad" gradientTransform="rotate(270)"><stop stop-color="hsl(84, 100%, 0%)" stop-opacity="1" offset="0%"></stop><stop stop-color="hsl(108, 73%, 16%)" stop-opacity="1" offset="45%"></stop><stop stop-color="hsl(108, 73%, 46%)" stop-opacity="1" offset="100%"></stop></linearGradient></defs><rect width="100%" height="100%" fill="hsl(84, 100%, 0%)"></rect><g fill="url(#ffflurry-grad)"><rect width="252" height="5" x="44" y="122.5" rx="2.5" transform="rotate(40, 170, 125)" opacity="0.94"></rect><rect width="849" height="5" x="-324.5" y="315.5" rx="2.5" transform="rotate(40, 100, 318)" opacity="0.12"></rect><rect width="324" height="5" x="-16" y="497.5" rx="2.5" transform="rotate(40, 146, 500)" opacity="0.62"></rect><rect width="842" height="5" x="5" y="144.5" rx="2.5" transform="rotate(40, 426, 147)" opacity="0.52"></rect><rect width="350" height="5" x="486" y="105.5" rx="2.5" transform="rotate(40, 661, 108)" opacity="0.16"></rect><rect width="999" height="5" x="186.5" y="280.5" rx="2.5" transform="rotate(40, 686, 283)" opacity="0.15"></rect><rect width="576" height="5" x="445" y="615.5" rx="2.5" transform="rotate(40, 733, 618)" opacity="0.33"></rect><rect width="1735" height="5" x="-492.5" y="413.5" rx="2.5" transform="rotate(40, 375, 416)" opacity="0.47"></rect><rect width="174" height="5" x="642" y="442.5" rx="2.5" transform="rotate(40, 729, 445)" opacity="0.34"></rect><rect width="353" height="5" x="399.5" y="451.5" rx="2.5" transform="rotate(40, 576, 454)" opacity="0.98"></rect><rect width="439" height="5" x="344.5" y="707.5" rx="2.5" transform="rotate(40, 564, 710)" opacity="0.39"></rect><rect width="818" height="5" x="74" y="593.5" rx="2.5" transform="rotate(40, 483, 596)" opacity="0.60"></rect><rect width="964" height="5" x="-207" y="672.5" rx="2.5" transform="rotate(40, 275, 675)" opacity="0.36"></rect><rect width="624" height="5" x="377" y="731.5" rx="2.5" transform="rotate(40, 689, 734)" opacity="0.71"></rect><rect width="818" height="5" x="12" y="734.5" rx="2.5" transform="rotate(40, 421, 737)" opacity="0.79"></rect><rect width="407" height="5" x="-115.5" y="694.5" rx="2.5" transform="rotate(40, 88, 697)" opacity="0.51"></rect></g></svg>